<svg width="104" height="86" viewBox="0 0 104 86" fill="none" xmlns="http://www.w3.org/2000/svg">
<path d="M97.0247 0.0720215H7.34108C3.73921 0.0720215 0.815674 2.49041 0.815674 5.46993V79.6497C0.815674 82.6292 3.73921 85.0476 7.34108 85.0476H97.0152C100.617 85.0476 103.541 82.6292 103.541 79.6576V5.46993C103.541 2.49041 100.617 0.0720215 97.0247 0.0720215ZM57.0698 65.1868C57.0698 73.2718 51.3374 76.9547 42.968 76.9547C37.7649 76.9547 33.5601 74.9704 30.7171 72.4639C28.7996 70.7733 29.6427 67.8995 31.9288 66.7554V66.7554C33.9229 65.7575 36.2725 66.5504 38.1752 67.7132C39.3433 68.427 40.7401 68.8618 42.3948 68.8618C45.4999 68.8618 47.2865 67.8581 47.2865 63.9539V43.405C47.2865 40.7034 49.4765 38.5134 52.1781 38.5134V38.5134C54.8797 38.5134 57.0698 40.7034 57.0698 43.405V65.1868ZM78.2893 76.9547C72.0677 76.9547 67.7766 75.0929 64.8363 72.3842C63.0086 70.7004 63.7795 67.8592 65.9556 66.6591V66.6591C67.8694 65.6037 70.1678 66.2334 71.7782 67.711C73.3026 69.1096 75.2246 70.1026 78.0791 70.1026C81.9485 70.1026 83.9739 68.5061 83.9739 66.2932C83.9739 63.6536 81.872 62.7131 77.6205 61.1719L75.2893 60.3421C68.5537 57.9711 64.0729 54.9995 64.0729 48.7085C64.0729 42.9234 69.4136 38.5134 77.7447 38.5134C81.8953 38.5134 85.2276 39.3488 87.9085 41.3823C89.8447 42.8509 89.1354 45.6942 86.9902 46.836V46.836C85.1509 47.815 82.9873 47.021 81.1626 46.0151C80.1944 45.4814 79.0909 45.2469 77.7447 45.2469C75.0123 45.2469 73.283 46.6853 73.283 48.5584C73.283 50.874 75.0123 51.8066 79.0154 53.245L81.3466 54.0748C89.286 56.8805 93.7573 59.7494 93.7573 66.1984C93.7573 73.1453 87.1554 76.9547 78.2893 76.9547Z" fill="black"/>
</svg>
