<svg width="113" height="86" viewBox="0 0 113 86" fill="none" xmlns="http://www.w3.org/2000/svg">
<path fill-rule="evenodd" clip-rule="evenodd" d="M79.6924 0.0789759C77.7826 0.0236744 75.7868 0.30018 73.791 0.83739C69.7899 1.91181 65.5978 4.00535 61.2912 6.8968C59.6105 8.03442 57.9108 9.33005 56.2015 10.7047C54.5304 9.36165 52.8688 8.09762 51.2168 6.9916C46.9197 4.10015 42.7372 2.00661 38.7456 0.940091C34.7541 -0.134329 30.7816 -0.165929 27.5253 1.3904C24.2595 2.94673 22.3115 5.80658 21.433 9.20364C20.5545 12.6007 20.6499 16.6456 21.538 21.1724C21.834 22.7445 22.2733 24.3877 22.7699 26.0705C20.9078 26.5366 19.0934 27.0264 17.4223 27.5715C12.3517 29.2068 8.15965 31.166 5.10392 33.4966C2.05773 35.8271 0.0810547 38.6554 0.0810547 41.7601C0.0810547 44.8649 2.05773 47.6931 5.10392 50.0158C8.15965 52.3463 12.3517 54.3135 17.4223 55.9488C19.208 56.5255 21.1561 57.0548 23.1614 57.5446C22.4356 59.7725 21.8531 61.9371 21.4521 63.9911C20.5736 68.5179 20.4876 72.5628 21.3566 75.9678C22.2351 79.3727 24.1927 82.2484 27.468 83.8126C30.7434 85.3768 34.735 85.3373 38.7361 84.2708C42.7372 83.1964 46.9197 81.1028 51.2264 78.2114C52.8975 77.0896 54.5877 75.8019 56.2779 74.443C57.9776 75.8098 59.6774 77.0975 61.3485 78.2351C65.6551 81.1266 69.8377 83.2122 73.8292 84.2866C77.8208 85.3531 81.7932 85.3847 85.0495 83.8284C88.3153 82.2721 90.2633 79.4122 91.1419 76.0152C92.0108 72.6181 91.9153 68.5811 91.0368 64.0543C90.6358 62.0003 90.0533 59.8278 89.3275 57.5841C91.3997 57.0785 93.405 56.5492 95.248 55.9488C100.319 54.3135 104.511 52.3463 107.566 50.0158C110.613 47.6931 112.589 44.8649 112.589 41.7601C112.589 38.6554 110.613 35.8271 107.566 33.4966C104.511 31.166 100.319 29.2068 95.248 27.5715C93.5482 27.0185 91.7148 26.5208 89.8145 26.0467C90.3206 24.3561 90.7599 22.6971 91.0655 21.1171C91.9535 16.5903 92.0395 12.5375 91.161 9.13254C90.292 5.73548 88.3344 2.85983 85.0495 1.2956C83.4166 0.513484 81.6022 0.134277 79.6924 0.0789759ZM79.4728 4.19495C80.6664 4.21865 81.6882 4.45566 82.5572 4.87436C84.3047 5.71178 85.5938 7.33131 86.2813 10.0016C86.9689 12.6718 86.9498 16.2822 86.1381 20.4692C85.8516 21.8992 85.4506 23.416 84.9922 24.9723C79.9884 23.9769 74.5168 23.2343 68.6727 22.8077C65.7411 19.4422 62.7331 16.3849 59.6965 13.6672C61.3007 12.3716 62.8954 11.155 64.452 10.1122C68.4244 7.43401 72.1868 5.61698 75.3284 4.77166C76.8945 4.35295 78.2696 4.17125 79.4728 4.19495ZM33.083 4.20285C34.2766 4.17915 35.6612 4.36085 37.2273 4.77956C40.3785 5.62488 44.1504 7.44981 48.1324 10.1201C49.6508 11.155 51.2168 12.34 52.7924 13.6119C49.7271 16.3454 46.6905 19.4343 43.7398 22.8235C37.9244 23.2659 32.4718 24.0085 27.4967 25.0118C27.0383 23.4634 26.6277 21.9466 26.3603 20.5245C25.5391 16.3375 25.52 12.7271 26.2171 10.049C26.9047 7.37081 28.2033 5.73548 29.9699 4.89806C30.8485 4.47146 31.8798 4.23445 33.083 4.21075V4.20285ZM56.2779 16.5824C58.2736 18.3678 60.2599 20.3349 62.2365 22.4443C60.2981 22.3811 58.3309 22.3416 56.3352 22.3416C54.3012 22.3416 52.2959 22.3811 50.3192 22.4522C52.2959 20.3349 54.2821 18.3757 56.2779 16.5824ZM56.3352 26.426C59.6583 26.426 62.8954 26.5366 66.0467 26.7262C68.2239 29.3016 70.3438 32.0351 72.3587 34.9344C74.1348 37.4704 75.7391 40.0142 77.2001 42.5185C75.72 45.0624 74.0871 47.6299 72.2918 50.2133C70.7067 52.4806 69.0546 54.6295 67.374 56.7151C63.8122 56.96 60.1262 57.0943 56.3352 57.0943C52.4582 57.0943 48.6863 56.9521 45.0385 56.6914C43.3865 54.6453 41.7631 52.5201 40.2066 50.2923C38.4114 47.7168 36.788 45.1493 35.3079 42.6134C36.7976 40.0616 38.4209 37.4783 40.2257 34.8949C42.2406 32.0193 44.351 29.3016 46.5091 26.7341C49.6985 26.5366 52.9739 26.426 56.3352 26.426ZM72.3491 27.2318C76.3789 27.6505 80.1603 28.2272 83.6744 28.9224C82.6336 31.7507 81.3444 34.7132 79.7879 37.7706C78.7757 36.151 77.7253 34.5315 76.5889 32.912C75.2234 30.9369 73.791 29.0646 72.3396 27.2318H72.3491ZM40.0634 27.2634C38.6501 29.0646 37.2559 30.8974 35.9095 32.833C34.7636 34.4762 33.6941 36.1194 32.6723 37.7548C31.1254 34.7132 29.8458 31.7744 28.8049 28.954C32.2999 28.2588 36.0623 27.6821 40.0634 27.2634ZM88.5158 29.9968C90.2442 30.4234 91.9249 30.8816 93.4528 31.3793C98.1223 32.8804 101.818 34.6737 104.215 36.4986C106.611 38.3236 107.652 40.0695 107.652 41.7601C107.652 43.4508 106.611 45.1967 104.215 47.0216C101.818 48.8466 98.1223 50.6399 93.4528 52.1409C91.753 52.6939 89.8814 53.1995 87.9333 53.6657C86.5392 50.1106 84.763 46.4054 82.6527 42.6134C85.0781 38.2604 87.0453 34.0259 88.5158 29.9968ZM24.0685 30.0126C25.5296 34.0022 27.468 38.2051 29.8553 42.5106C27.7354 46.3185 25.9497 50.0474 24.5556 53.6262C22.6744 53.1679 20.86 52.6781 19.2176 52.1488C14.548 50.6399 10.8525 48.8466 8.45567 47.0216C6.05883 45.1967 5.02752 43.4508 5.02752 41.7601C5.02752 40.0695 6.05883 38.3236 8.45567 36.4986C10.8525 34.6737 14.548 32.8804 19.2176 31.3793C20.7263 30.8895 22.3688 30.4392 24.0781 30.0126H24.0685ZM56.3352 32.4696C49.6126 32.4696 44.1122 37.02 44.1122 42.5818C44.1122 48.1435 49.6126 52.6939 56.3352 52.6939C63.0578 52.6939 68.5581 48.1435 68.5581 42.5818C68.5581 37.02 63.0578 32.4696 56.3352 32.4696ZM32.7201 47.3613C33.7514 49.0125 34.8209 50.6557 35.9764 52.3068C36.8835 53.6025 37.8002 54.8665 38.7361 56.0989C35.4511 55.7197 32.3286 55.2457 29.4065 54.6769C30.3328 52.3226 31.45 49.8657 32.7296 47.3613H32.7201ZM79.8547 47.3613C81.1343 49.8736 82.2516 52.3305 83.1874 54.6927C80.2463 55.2615 77.1141 55.7355 73.8197 56.1068C74.765 54.8586 75.7009 53.5867 76.6176 52.2752C77.7635 50.632 78.8234 48.9967 79.8547 47.3613ZM27.9933 58.6111C32.4145 59.4723 37.2082 60.1438 42.2979 60.5783C45.6879 64.639 49.2306 68.2888 52.7924 71.4805C51.1977 72.7603 49.6221 73.969 48.0751 75.0039C44.1027 77.6821 40.3308 79.4912 37.1986 80.3365C34.057 81.1819 31.7079 81.0712 29.9699 80.2338C28.2224 79.3964 26.9333 77.7769 26.2458 75.1066C25.5582 72.4364 25.5773 68.8339 26.389 64.6469C26.7614 62.7508 27.3057 60.7126 27.9933 58.6111ZM84.5911 58.6269C85.2882 60.7442 85.8421 62.7824 86.2145 64.6943C87.0262 68.8813 87.0453 72.4917 86.3482 75.1698C85.6606 77.848 84.3715 79.4833 82.6049 80.3286C80.8479 81.174 78.4797 81.2767 75.3284 80.4392C72.1868 79.5939 68.4149 77.769 64.4329 75.0987C62.8859 74.048 61.2912 72.8314 59.6869 71.5437C63.2774 68.3362 66.8392 64.6706 70.2483 60.5862C75.3475 60.1517 80.1603 59.4881 84.5911 58.6269ZM48.6767 60.9891C51.1882 61.0997 53.7282 61.1787 56.3352 61.1787C58.8561 61.1787 61.3103 61.1076 63.7453 60.997C61.2625 63.7778 58.732 66.298 56.211 68.5653C53.69 66.2901 51.1595 63.762 48.6767 60.9891Z" fill="black"/>
</svg>
