<svg width="81" height="94" viewBox="0 0 81 94" fill="none" xmlns="http://www.w3.org/2000/svg">
<path d="M80.4824 1.35796C80.1126 0.942543 79.581 0.707397 79.0263 0.707397H1.97365C1.41898 0.707397 0.887425 0.942543 0.517646 1.35796C0.140163 1.77339 -0.0447262 2.3299 0.00920043 2.89424L6.95026 82.0047C7.01959 82.8355 7.58967 83.5253 8.37545 83.7604L39.953 92.9311C40.1225 92.986 40.3074 93.0095 40.4923 93.0095C40.6772 93.0095 40.8544 92.986 41.0316 92.9311L72.6323 83.7604C73.418 83.5253 73.9804 82.8355 74.0574 82.0047L80.9908 2.89424C81.0447 2.3299 80.8598 1.77339 80.4824 1.35796ZM64.2556 24.1814C64.0348 26.7014 61.9247 28.6347 59.395 28.6347H32.3329C29.3385 28.6347 26.9867 31.1994 27.2455 34.1826V34.1826C27.4744 36.8219 29.6837 38.8478 32.3329 38.8478H52.0554C57.9234 38.8478 62.5302 43.8769 62.017 49.7224L60.9104 62.3266C60.5545 66.3808 57.7772 69.8148 53.8871 71.0106L40.6782 75.0711C40.5522 75.1099 40.4173 75.1087 40.292 75.0679V75.0679L25.1877 70.4123C22.4662 69.5734 20.5244 67.1689 20.2774 64.3318L20.068 61.9271C19.8245 59.131 22.0286 56.7267 24.8353 56.7267H26.5703C28.0705 56.7267 29.3217 57.8736 29.4519 59.3681V59.3681C29.5623 60.6349 30.4871 61.6811 31.7308 61.9461L38.4968 63.3877C39.8832 63.6831 41.3165 63.6804 42.7017 63.3797L46.2636 62.6067C49.2966 61.9484 51.5494 59.3947 51.8241 56.3032V56.3032C52.1927 52.1546 48.9242 48.5828 44.7593 48.5828H28.0582C22.8748 48.5828 18.5505 44.6221 18.0966 39.4586L17.2433 29.752C16.7294 23.906 21.3364 18.8762 27.2049 18.8762H59.395C62.2579 18.8762 64.5055 21.3295 64.2556 24.1814V24.1814Z" fill="black"/>
</svg>
