<svg width="103" height="86" viewBox="0 0 103 86" fill="none" xmlns="http://www.w3.org/2000/svg">
<path d="M100.409 0.0720215H2.57571C1.22382 0.0720215 0.129883 0.976942 0.129883 2.09525V83.0244C0.129883 84.1427 1.22382 85.0476 2.57571 85.0476H100.409C101.761 85.0476 102.855 84.1427 102.855 83.0244V2.09525C102.855 0.976942 101.761 0.0720215 100.409 0.0720215ZM61.2757 41.9987C61.2757 43.9236 59.7152 45.484 57.7903 45.484H55.1611C51.7841 45.484 49.0465 48.2216 49.0465 51.5986V72.063C49.0465 74.7646 46.8564 76.9547 44.1548 76.9547V76.9547C41.4533 76.9547 39.2632 74.7646 39.2632 72.063V51.5986C39.2632 48.2216 36.5256 45.484 33.1486 45.484H30.5194C28.5945 45.484 27.034 43.9236 27.034 41.9987V41.9987C27.034 40.0738 28.5945 38.5134 30.5194 38.5134H57.7903C59.7152 38.5134 61.2757 40.0738 61.2757 41.9987V41.9987ZM66.4563 75.7103C65.0038 75.4165 64.0177 74.1261 64.0177 72.6441V72.6441C64.0177 70.0741 66.9593 68.3349 69.4117 69.1032C71.3706 69.7168 73.7252 70.2093 76.2373 70.2093C82.9012 70.2093 82.6432 66.6054 82.6432 66.1115C82.6432 60.8795 63.7597 60.8795 63.7597 49.2855C63.7597 36.4684 81.9516 38.1853 88.7514 39.2747C90.2189 39.5098 91.2264 40.8232 91.1592 42.3079V42.3079C91.0564 44.5796 88.537 46.0598 86.3452 45.4538C84.8039 45.0278 82.9934 44.6937 81.105 44.6937C75.8933 44.6937 74.0112 46.7406 74.0112 48.9338C74.0112 54.5885 93.0667 54.0235 93.0667 65.4041C93.0706 79.81 73.4491 77.1247 66.4563 75.7103Z" fill="black"/>
</svg>
