<svg width="119" height="91" viewBox="0 0 119 91" fill="none" xmlns="http://www.w3.org/2000/svg">
<path d="M56.981 0.460449C39.4705 0.460449 25.2236 16.6083 25.2236 36.4604C25.2236 46.7135 29.0501 55.9474 35.1382 62.4963C34.6802 64.4891 35.3482 66.5427 36.9704 68.102C38.5926 69.6537 41.0069 70.5588 43.5452 70.5588C48.2687 70.5588 52.0953 67.5087 52.0953 63.7437C52.0953 59.9786 48.2687 56.9286 43.5452 56.9286C43.0776 56.9286 42.6195 56.9666 42.1615 57.0274C37.791 51.84 34.9951 44.4925 34.9951 36.4604C34.9951 21.1644 45.0624 8.24915 56.981 8.24915C67.0388 8.24915 75.7607 17.4754 78.2417 29.5464C81.7152 30.3374 85.1791 31.4175 88.5667 32.7182C86.9063 14.6155 73.375 0.460449 56.981 0.460449ZM53.3167 29.6681C48.5932 29.6681 44.7666 32.7182 44.7666 36.4832C44.7666 40.2483 48.5932 43.2983 53.3167 43.2983C56.5802 43.2983 59.5575 41.8151 60.9889 39.4876C68.9282 39.0845 78.0986 41.0393 86.5723 45.0858C103.329 53.0951 112.442 67.098 106.468 75.6701C104.503 78.4844 100.962 80.5076 96.2389 81.5193C89.4255 82.9644 81.0663 82.2266 72.8407 79.5949C70.226 81.5269 67.3537 83.3447 64.2238 85.0181C72.3444 88.2887 80.9422 90.0229 88.8912 90.0229C92.336 90.0229 95.6568 89.7035 98.7676 89.0418C106.106 87.4673 111.726 84.151 115.009 79.4504C123.769 66.8926 113.482 48.866 91.6012 38.4076C81.1808 33.4331 69.6439 31.1361 59.5098 31.7978C57.8971 30.4439 55.6641 29.6681 53.3167 29.6681ZM20.729 41.9825C3.42848 52.6387 -3.98604 68.2237 3.83881 79.4504C7.12143 84.151 12.742 87.4673 20.0897 89.0341C23.191 89.7035 26.5118 90.0229 29.9566 90.0229C39.2415 90.0229 49.4329 87.6726 58.7082 83.2383C69.0809 78.2866 76.7626 71.616 81.1045 64.6412C85.3891 64.2761 88.7385 61.4086 88.7385 57.9021C88.7385 54.1447 84.9024 51.087 80.1884 51.087C75.4744 51.087 71.6383 54.1447 71.6383 57.9021C71.6383 58.9518 71.9627 59.9406 72.4971 60.8305C68.9664 66.6264 62.3916 72.3995 53.6793 76.5601C43.1921 81.5725 31.5789 83.4284 22.6089 81.5117C17.8854 80.5076 14.3451 78.4844 12.3794 75.6625C7.65581 68.893 12.3889 58.7236 22.8475 50.8056C21.8455 47.9989 21.1298 45.0477 20.729 41.9825Z" fill="black"/>
</svg>
