<svg width="98" height="92" viewBox="0 0 98 92" fill="none" xmlns="http://www.w3.org/2000/svg">
<path fill-rule="evenodd" clip-rule="evenodd" d="M87.0371 0.457275C92.98 0.457275 97.6114 5.60941 96.9806 11.5187L90.1729 75.2937C89.7225 79.5134 86.6579 82.9892 82.5279 83.9646L50.9318 91.4266C49.4202 91.7836 47.8463 91.7836 46.3348 91.4266L14.7387 83.9646C10.6087 82.9892 7.54411 79.5134 7.09368 75.2937L0.285982 11.5187C-0.344808 5.60941 4.28663 0.457275 10.2295 0.457275H87.0371ZM25.152 59.5813C24.932 56.2561 27.5698 53.438 30.9023 53.438H32.9658C34.8877 53.438 36.4706 54.9478 36.5613 56.8676V56.8676C36.6344 58.4149 37.6893 59.742 39.1804 60.1622L45.9207 62.0618C47.6945 62.5617 49.5721 62.5617 51.3459 62.0618L56.4881 60.6126C58.949 59.919 60.7179 57.7665 60.9213 55.2177V55.2177C61.205 51.6629 58.3968 48.6216 54.8306 48.6216H40.3484C37.8031 48.6216 35.6971 46.6411 35.5411 44.1005V44.1005C35.3708 41.3295 37.5722 38.9887 40.3484 38.9887H57.6362C60.1293 38.9887 62.2104 37.0862 62.4333 34.603V34.603C62.6864 31.7843 60.4663 29.3559 57.6362 29.3559H27.1066C24.6157 29.3559 22.5357 27.4565 22.31 24.9758V24.9758C22.0534 22.1551 24.2743 19.723 27.1066 19.723H64.3653C70.1852 19.723 74.7756 24.6736 74.3368 30.477L73.6932 38.9887L72.1664 59.63C71.8538 63.857 68.9103 67.4277 64.8207 68.5411L51.2603 72.2331C49.5403 72.7014 47.7263 72.7014 46.0063 72.2331L30.7487 68.079C27.6809 67.2438 25.481 64.5539 25.2711 61.3813L25.152 59.5813Z" fill="black"/>
</svg>
